<svg width="81" height="18" viewBox="0 0 81 18" fill="none" xmlns="http://www.w3.org/2000/svg">
<path d="M2.33692 1.0068C1.74792 1.1748 0.956924 1.8988 0.736924 2.4718C0.653924 2.6898 0.586924 5.8398 0.586924 9.4618C0.586924 17.0058 0.569924 16.9218 1.93392 17.6298L2.67492 17.9998H34.2699V0.820801L18.5729 0.837801C9.79792 0.837801 2.62292 0.921801 2.33692 1.0068ZM23.6099 4.9638C23.9416 5.21233 24.2135 5.53186 24.4057 5.89901C24.5979 6.26616 24.7056 6.67165 24.7209 7.0858L24.7549 7.8108H23.9129C23.1049 7.8108 23.0879 7.7938 22.9699 7.2378C22.8179 6.5478 22.5999 6.3788 21.7069 6.3788C20.8979 6.3788 20.5779 6.6648 20.6619 7.3388C20.7119 7.8438 20.6459 7.7938 22.9869 8.5008C24.0639 8.8038 24.4519 9.1238 24.7719 9.8648C25.1089 10.6398 25.0749 12.2398 24.7039 12.9468C23.9799 14.4128 21.4539 14.9168 19.9039 13.8908C19.2309 13.4528 18.6079 12.2408 18.6079 11.3808V10.7408L19.4839 10.7908C20.3419 10.8418 20.3589 10.8588 20.4769 11.4308C20.7799 12.9308 22.8859 13.0308 23.2219 11.5828C23.3739 10.8758 22.9019 10.4548 21.7229 10.2358C19.7359 9.8818 18.9779 9.2088 18.8269 7.6588C18.6919 6.3618 19.1969 5.3008 20.1569 4.8468C21.1339 4.3918 22.9359 4.4588 23.6099 4.9638ZM9.46292 5.0318C9.76592 5.1998 10.1189 5.5878 10.2709 5.8568C10.6079 6.5308 10.6079 8.2148 10.2539 8.7028C10.0179 9.0398 10.0179 9.1078 10.2709 9.3598C10.6919 9.7638 10.8609 10.3368 10.8609 11.3138C10.8609 12.3918 10.4559 13.2338 9.69792 13.7388C9.17592 14.0928 8.93992 14.1258 6.80192 14.1258H4.45992V4.6948H6.69992C8.60292 4.6948 9.00692 4.7448 9.46192 5.0318H9.46292ZM17.9339 5.6218V6.5478H13.8919V8.2318H17.5969V10.1688L15.7449 10.1178L13.8919 10.0508V12.2738H18.1019V14.1098L15.0709 14.1598L12.0389 14.2098V4.6948H17.9339V5.6218ZM31.7109 5.2678C31.7439 5.5198 31.7279 5.9238 31.6769 6.1428C31.5759 6.4968 31.4579 6.5308 30.5149 6.5808L29.4709 6.6308L29.4209 10.3708L29.3859 14.1258H28.6289C28.2069 14.1258 27.8199 14.1428 27.7529 14.1598C27.5839 14.2268 27.5679 13.8228 27.5509 9.7808L27.5339 6.5478H25.3439V4.6948L28.5109 4.7288L31.6609 4.7788L31.7109 5.2678Z" fill="#9AA1B5"/>
<path d="M6.31206 7.47691V8.4029H7.20406C8.38406 8.4029 8.70406 8.15091 8.63606 7.30891L8.58606 6.63491L7.45706 6.58491L6.31206 6.5339V7.47691ZM6.31206 11.1869V12.2809H7.49006C8.77006 12.2809 9.00506 12.1129 9.00506 11.1859C9.00506 10.2599 8.77006 10.0919 7.49006 10.0919H6.31006V11.1869H6.31206ZM38.8161 4.72991C37.9571 5.03391 37.0651 6.00991 36.7781 6.98791C36.6441 7.4759 36.5431 8.55391 36.5431 9.66591C36.5431 11.2989 36.5931 11.6189 36.9811 12.4609C37.6541 13.8759 38.2271 14.2129 39.9951 14.2129C41.2421 14.2129 41.4951 14.1629 42.0001 13.8089C42.5891 13.3879 43.0941 12.4449 43.2801 11.3839L43.3971 10.7599H42.4541C41.5441 10.7599 41.5111 10.7769 41.5111 11.1979C41.5111 11.4509 41.3091 11.8379 41.0061 12.1409C40.5511 12.5959 40.4161 12.6299 39.8611 12.5289C39.0861 12.3939 38.8331 12.1749 38.5311 11.4849C38.2111 10.7099 38.2441 8.23391 38.5811 7.39191C38.9011 6.59991 39.2211 6.3819 40.1131 6.3819C40.9221 6.3819 41.3091 6.65091 41.4771 7.30791C41.6121 7.77891 41.6801 7.8129 42.4871 7.8639L43.3641 7.91391L43.2631 7.3579C43.0601 6.2799 42.5731 5.43791 41.9491 5.05091C41.2251 4.59591 39.6921 4.44391 38.8161 4.72991ZM68.7281 4.76091C67.8521 5.08091 67.1781 5.77191 66.8251 6.69791C66.4371 7.69191 66.4031 11.2119 66.7571 12.1039C67.3801 13.6539 68.2901 14.2939 69.8571 14.2939C70.5471 14.2939 70.9171 14.1929 71.3891 13.8729C71.9611 13.4859 71.9951 13.4859 71.9951 13.7889C71.9951 14.0749 72.1131 14.1259 72.7531 14.1259H73.5281L73.4781 11.6329L73.4271 9.1569L71.7091 9.10691L69.9741 9.05691V10.7569H70.8161C71.6921 10.7569 71.7591 10.8249 71.5061 11.4809C71.2371 12.1549 70.8331 12.4409 70.1261 12.4409C68.6771 12.4409 68.2901 11.7679 68.2901 9.2749C68.2901 7.8099 68.3401 7.53991 68.6771 7.0349C69.0141 6.5299 69.1491 6.46191 69.9231 6.41191C70.8831 6.36191 71.2711 6.61391 71.4391 7.40591C71.4891 7.67591 71.6251 7.8939 71.7261 7.9109C71.8261 7.9279 72.2141 7.94491 72.5851 7.96091L73.2581 7.97791L73.2251 7.32091C73.1571 6.39491 72.4671 5.30091 71.7091 4.94691C70.8671 4.54291 69.5531 4.45791 68.7281 4.76091ZM44.3741 7.25491C44.3571 8.66891 44.3241 10.7909 44.2741 11.9699L44.1891 14.1259H46.0581V10.0839H48.7531V14.1259H50.6061V4.67791L49.7301 4.72791L48.8371 4.7779L48.7871 6.49691L48.7371 8.23091H46.0571V4.69491H44.3731L44.3741 7.25491ZM53.7551 4.8119C53.6881 4.9129 52.4591 9.2919 51.3641 13.3179L51.1451 14.1259H52.9471L53.1491 13.4019C53.2501 13.0139 53.3691 12.5929 53.4021 12.4759C53.4861 12.1889 55.8101 12.1889 55.9121 12.4759C55.9451 12.5929 56.0621 13.0139 56.1641 13.4019L56.3491 14.1259H57.2591C57.7641 14.1259 58.1851 14.0759 58.1851 13.9909C58.1681 13.9239 57.5791 11.8189 56.8551 9.32591L55.5401 4.77991L54.6801 4.72991C54.2101 4.69591 53.8051 4.74591 53.7551 4.81291V4.8119ZM55.0351 8.93891C55.2041 9.61191 55.3221 10.2189 55.3221 10.2859C55.3221 10.3699 55.0191 10.4209 54.6481 10.4209C54.2781 10.4209 53.9741 10.3709 53.9741 10.2859C53.9741 9.96591 54.5471 7.7259 54.6481 7.7259C54.6981 7.7259 54.8841 8.28191 55.0351 8.93891ZM59.0281 9.4099V14.1259H60.8471L60.7621 11.4309C60.7121 9.9489 60.7451 8.73691 60.8121 8.73691C60.8971 8.73691 61.5371 9.9489 62.2281 11.4309L63.4911 14.1259H65.2591V4.69491H63.5751L63.5581 7.50691V10.3369L62.1271 7.50691L60.7121 4.69491H59.0281V9.4099ZM74.6401 4.8119C74.5731 4.8629 74.5231 6.98491 74.5231 9.5279V14.1259H80.5861V12.2729H76.3751V10.1009L78.2791 10.0509L80.1651 9.99991V8.31591L78.2791 8.26491L76.3751 8.21491V6.5459H78.4981C80.3671 6.5459 80.6031 6.5119 80.5181 6.27591C80.4681 6.12591 80.4181 5.7209 80.4181 5.3499V4.6939H77.5881C76.0221 4.6939 74.6911 4.7439 74.6411 4.8109L74.6401 4.8119Z" fill="#9AA1B5"/>
</svg>
