<svg width="33" height="41" viewBox="0 0 33 41" fill="none" xmlns="http://www.w3.org/2000/svg">
<g clip-path="url(#clip0_2007_13040)">
<path d="M5.51223 17.7119H12.0986C10.8779 15.7842 12.0717 14.8203 12.8212 14.5794H20.2108L16.275 18.5151L20.2108 22.4508L27.7405 14.9211C29.748 12.9136 29.748 9.65881 27.7405 7.6513L20.2108 0.121582L15.9537 4.3786L20.2108 8.63562H12.0986C6.44395 8.63562 5.35159 14.6865 5.51223 17.7119Z" fill="#00DAB2"/>
<path d="M26.8633 22.5313H20.2769C21.4976 24.459 20.3038 25.4228 19.5543 25.6638H12.1647L16.1005 21.7281L12.1647 17.7923L4.63502 25.322C2.62751 27.3295 2.62751 30.5844 4.63502 32.5919L12.1647 40.1216L16.4218 35.8646L12.1647 31.6075H20.2769C25.9315 31.6075 27.0239 25.5567 26.8633 22.5313Z" fill="white"/>
</g>
<defs>
<clipPath id="clip0_2007_13040">
<rect width="30.3756" height="40.2269" fill="white" transform="translate(1)"/>
</clipPath>
</defs>
</svg>
