<svg width="65" height="42" viewBox="0 0 65 42" fill="none" xmlns="http://www.w3.org/2000/svg">
<path d="M12.8611 9.63458L18.7834 0.768509H25.0913L14.2978 16.2929L12.5807 26H6.23779L7.95493 16.2929L2.62828 0.768509H9.32163L12.055 9.63458H12.8611ZM39.759 26H22.1671L26.6176 0.768509H44.2096L43.2284 6.23533H31.9443L31.1383 10.9662H40.4599L39.4787 16.4331H30.1571L29.4562 20.5332H40.7403L39.759 26ZM49.4377 18.816C49.4377 20.428 50.5941 21.2341 52.907 21.2341C55.2433 21.2341 56.4114 20.5098 56.4114 19.0613C56.4114 18.2904 56.0142 17.6596 55.2199 17.169C54.4256 16.6784 53.456 16.2695 52.3113 15.9424C51.1899 15.6154 50.0568 15.2416 48.912 14.821C47.7906 14.3772 46.8328 13.6996 46.0384 12.7885C45.2441 11.854 44.8469 10.6976 44.8469 9.31918C44.8469 3.4552 48.62 0.523202 56.1661 0.523202C58.9228 0.523202 61.0021 1.04886 62.4039 2.10017C63.829 3.12812 64.5415 4.56491 64.5415 6.41055C64.5415 7.08806 64.4481 7.74221 64.2612 8.373C64.0976 8.98042 63.9224 9.41263 63.7355 9.66962L63.4552 10.0901H57.2524C57.7664 9.55281 58.0234 8.87529 58.0234 8.05761C58.0234 6.53904 57.0305 5.77976 55.0447 5.77976C52.5449 5.77976 51.295 6.57409 51.295 8.16274C51.295 8.95706 51.6922 9.58785 52.4865 10.0551C53.2808 10.5223 54.2387 10.8961 55.3601 11.1765C56.5048 11.4335 57.6496 11.7606 58.7944 12.1577C59.9391 12.5549 60.9087 13.2207 61.703 14.1552C62.4973 15.0664 62.8945 16.2578 62.8945 17.7297C62.8945 20.6967 62.0067 22.9045 60.2311 24.3529C58.4556 25.7781 55.7222 26.4906 52.0309 26.4906C48.3396 26.4906 45.8165 25.8365 44.4615 24.5282C43.4569 23.5469 42.9546 22.1919 42.9546 20.4631C42.9546 19.8089 43.0247 19.0964 43.1648 18.3254L43.27 17.7647H49.5779L49.5078 18.1852C49.461 18.4189 49.4377 18.6291 49.4377 18.816Z" fill="#3BE9C9"/>
<path d="M9.14973 28.7045C11.9406 28.7045 13.3361 29.8452 13.3361 32.1266C13.3361 32.5087 13.2955 32.9198 13.2145 33.3599L12.6065 36.834C12.3286 38.4437 11.7264 39.6365 10.7999 40.4124C9.87351 41.1883 8.57071 41.5762 6.89155 41.5762C5.21238 41.5762 4.04276 41.1883 3.38267 40.4124C2.93103 39.8797 2.70521 39.1443 2.70521 38.2063C2.70521 37.7894 2.75154 37.332 2.84418 36.834L3.45215 33.3599C3.99643 30.2563 5.89563 28.7045 9.14973 28.7045ZM7.36055 38.8837C7.93958 38.8837 8.40279 38.7332 8.75021 38.4321C9.09762 38.131 9.34081 37.5752 9.47977 36.7645L10.0704 33.4294C10.1051 33.1977 10.1225 32.9893 10.1225 32.804C10.1225 31.866 9.64769 31.397 8.6981 31.397C7.50531 31.4201 6.79311 32.0976 6.5615 33.4294L5.9709 36.7645C5.92458 37.054 5.90142 37.3551 5.90142 37.6678C5.90142 38.4784 6.3878 38.8837 7.36055 38.8837ZM21.1713 28.8261C22.4915 28.8261 23.4295 29.1156 23.9854 29.6947C24.4023 30.1347 24.6107 30.6906 24.6107 31.3622C24.6107 31.5939 24.5875 31.837 24.5412 32.0918L24.3849 32.9256C24.2575 33.5857 24.0085 34.101 23.638 34.4716C23.279 34.8422 22.9605 35.0275 22.6826 35.0275L22.6652 35.1664C22.9894 35.1664 23.3195 35.3459 23.6553 35.7049C23.9912 36.0639 24.1591 36.4866 24.1591 36.973C24.1591 37.1698 24.1359 37.3783 24.0896 37.5983L23.9854 38.1368C23.8001 39.1327 23.3542 39.9144 22.6478 40.4818C21.953 41.0493 20.9802 41.333 19.7296 41.333H13.9278L16.1338 28.8261H21.1713ZM19.608 36.226H17.9577L17.5408 38.6232H19.1911C19.2142 38.6232 19.2374 38.6232 19.2605 38.6232C19.7932 38.6232 20.2159 38.5016 20.5286 38.2584C20.8413 38.0036 20.9976 37.6967 20.9976 37.3378C20.9976 36.5966 20.5344 36.226 19.608 36.226ZM20.077 31.536H18.7742L18.3225 34.1242H19.608C20.7197 34.1242 21.2755 33.6378 21.2755 32.665C21.2755 32.3292 21.1713 32.0571 20.9629 31.8486C20.766 31.6402 20.4707 31.536 20.077 31.536ZM30.816 28.8261L32.6746 34.819L36.6699 28.8261H39.9529L37.7469 41.333H34.6028L35.8535 34.2805L33.1784 38.4842H30.9028L29.7216 34.2805L28.4709 41.333H25.3442L27.5503 28.8261H30.816ZM48.9413 41.333H40.2212L42.4273 28.8261H51.1474L50.661 31.536H45.0677L44.6681 33.881H49.2887L48.8023 36.5908H44.1818L43.8343 38.6232H49.4277L48.9413 41.333ZM62.789 28.8261L60.6003 41.333H57.4562L55.2675 34.489L54.0863 41.333H50.9422L53.1483 28.8261H56.3792L58.5332 35.2185L59.6623 28.8261H62.789Z" fill="white"/>
</svg>
