<svg width="66" height="43" viewBox="0 0 66 43" fill="none" xmlns="http://www.w3.org/2000/svg">
<path d="M13.3611 9.99542L19.2834 1.12935H25.5913L14.7978 16.6537L13.0807 26.3608H6.73779L8.45493 16.6537L3.12828 1.12935H9.82163L12.555 9.99542H13.3611ZM40.259 26.3608H22.6671L27.1176 1.12935H44.7096L43.7284 6.59617H32.4443L31.6383 11.3271H40.9599L39.9787 16.7939H30.6571L29.9562 20.894H41.2403L40.259 26.3608ZM49.9377 19.1769C49.9377 20.7889 51.0941 21.5949 53.407 21.5949C55.7433 21.5949 56.9114 20.8707 56.9114 19.4222C56.9114 18.6512 56.5142 18.0204 55.7199 17.5298C54.9256 17.0392 53.956 16.6304 52.8113 16.3033C51.6899 15.9762 50.5568 15.6024 49.412 15.1819C48.2906 14.738 47.3328 14.0605 46.5384 13.1494C45.7441 12.2149 45.3469 11.0584 45.3469 9.68002C45.3469 3.81604 49.12 0.884042 56.6661 0.884042C59.4228 0.884042 61.5021 1.4097 62.9039 2.46101C64.329 3.48896 65.0415 4.92575 65.0415 6.77139C65.0415 7.4489 64.9481 8.10305 64.7612 8.73384C64.5976 9.34126 64.4224 9.77347 64.2355 10.0305L63.9552 10.451H57.7524C58.2664 9.91365 58.5234 9.23613 58.5234 8.41845C58.5234 6.89988 57.5305 6.1406 55.5447 6.1406C53.0449 6.1406 51.795 6.93493 51.795 8.52358C51.795 9.3179 52.1922 9.94869 52.9865 10.4159C53.7808 10.8832 54.7387 11.257 55.8601 11.5373C57.0048 11.7943 58.1496 12.1214 59.2944 12.5186C60.4391 12.9157 61.4087 13.5816 62.203 14.5161C62.9973 15.4272 63.3945 16.6187 63.3945 18.0905C63.3945 21.0576 62.5067 23.2653 60.7311 24.7138C58.9556 26.1389 56.2222 26.8515 52.5309 26.8515C48.8396 26.8515 46.3165 26.1973 44.9615 24.889C43.9569 23.9078 43.4546 22.5528 43.4546 20.8239C43.4546 20.1698 43.5247 19.4572 43.6648 18.6863L43.77 18.1256H50.0779L50.0078 18.5461C49.961 18.7797 49.9377 18.99 49.9377 19.1769Z" fill="#00DAB2"/>
<path d="M9.64973 29.0654C12.4406 29.0654 13.8361 30.206 13.8361 32.4874C13.8361 32.8695 13.7955 33.2807 13.7145 33.7207L13.1065 37.1948C12.8286 38.8045 12.2264 39.9973 11.2999 40.7732C10.3735 41.5491 9.07071 41.937 7.39155 41.937C5.71238 41.937 4.54276 41.5491 3.88267 40.7732C3.43103 40.2405 3.20521 39.5051 3.20521 38.5671C3.20521 38.1502 3.25154 37.6928 3.34418 37.1948L3.95215 33.7207C4.49643 30.6172 6.39563 29.0654 9.64973 29.0654ZM7.86055 39.2446C8.43958 39.2446 8.90279 39.094 9.25021 38.7929C9.59762 38.4919 9.84081 37.936 9.97977 37.1254L10.5704 33.7902C10.6051 33.5586 10.6225 33.3501 10.6225 33.1648C10.6225 32.2268 10.1477 31.7578 9.1981 31.7578C8.00531 31.781 7.29311 32.4584 7.0615 33.7902L6.4709 37.1254C6.42458 37.4149 6.40142 37.716 6.40142 38.0286C6.40142 38.8393 6.8878 39.2446 7.86055 39.2446ZM21.6713 29.187C22.9915 29.187 23.9295 29.4765 24.4854 30.0555C24.9023 30.4956 25.1107 31.0514 25.1107 31.7231C25.1107 31.9547 25.0875 32.1979 25.0412 32.4527L24.8849 33.2864C24.7575 33.9465 24.5085 34.4619 24.138 34.8324C23.779 35.203 23.4605 35.3883 23.1826 35.3883L23.1652 35.5273C23.4894 35.5273 23.8195 35.7068 24.1553 36.0658C24.4912 36.4247 24.6591 36.8474 24.6591 37.3338C24.6591 37.5307 24.6359 37.7391 24.5896 37.9592L24.4854 38.4976C24.3001 39.4936 23.8542 40.2752 23.1478 40.8427C22.453 41.4101 21.4802 41.6938 20.2296 41.6938H14.4278L16.6338 29.187H21.6713ZM20.108 36.5869H18.4577L18.0408 38.984H19.6911C19.7142 38.984 19.7374 38.984 19.7605 38.984C20.2932 38.984 20.7159 38.8624 21.0286 38.6192C21.3413 38.3645 21.4976 38.0576 21.4976 37.6986C21.4976 36.9574 21.0344 36.5869 20.108 36.5869ZM20.577 31.8968H19.2742L18.8225 34.485H20.108C21.2197 34.485 21.7755 33.9986 21.7755 33.0259C21.7755 32.6901 21.6713 32.4179 21.4629 32.2095C21.266 32.001 20.9707 31.8968 20.577 31.8968ZM31.316 29.187L33.1746 35.1798L37.1699 29.187H40.4529L38.2469 41.6938H35.1028L36.3535 34.6414L33.6784 38.8451H31.4028L30.2216 34.6414L28.9709 41.6938H25.8442L28.0503 29.187H31.316ZM49.4413 41.6938H40.7212L42.9273 29.187H51.6474L51.161 31.8968H45.5677L45.1681 34.2418H49.7887L49.3023 36.9517H44.6818L44.3343 38.984H49.9277L49.4413 41.6938ZM63.289 29.187L61.1003 41.6938H57.9562L55.7675 34.8498L54.5863 41.6938H51.4422L53.6483 29.187H56.8792L59.0332 35.5794L60.1623 29.187H63.289Z" fill="#2F2F2F"/>
</svg>
