<svg width="169" height="40" viewBox="0 0 169 40" fill="none" xmlns="http://www.w3.org/2000/svg">
<g clip-path="url(#clip0_2007_9825)">
<path d="M92.1415 10.5298C96.2415 10.5298 98.2916 12.2055 98.2916 15.557C98.2916 16.1184 98.232 16.7223 98.1129 17.3688L97.2197 22.4726C96.8114 24.8373 95.9269 26.5896 94.5659 27.7294C93.2049 28.8692 91.2909 29.4392 88.8242 29.4392C86.3573 29.4392 84.639 28.8692 83.6693 27.7294C83.0058 26.9468 82.6741 25.8665 82.6741 24.4885C82.6741 23.8761 82.7421 23.2041 82.8781 22.4726L83.7713 17.3688C84.5709 12.8094 87.361 10.5298 92.1415 10.5298ZM109.037 10.7083C110.976 10.7084 112.354 11.1337 113.171 11.9843C113.783 12.6308 114.089 13.4473 114.089 14.434C114.089 14.7743 114.055 15.1317 113.987 15.5059L113.757 16.7307C113.57 17.7004 113.205 18.4576 112.66 19.002C112.133 19.5464 111.665 19.8185 111.257 19.8185L111.231 20.0227C111.708 20.0228 112.192 20.2865 112.686 20.8139C113.179 21.3412 113.426 21.9622 113.426 22.6767C113.426 22.9659 113.392 23.2722 113.324 23.5954L113.171 24.3865C112.898 25.8495 112.243 26.9978 111.206 27.8314C110.185 28.665 108.756 29.0819 106.918 29.0819H98.3952L101.636 10.7083H109.037ZM125.17 19.5124L131.04 10.7083H135.863L132.622 29.0819H128.003L129.84 18.7213L125.91 24.8969H122.567L120.832 18.7213L118.995 29.0819H114.401L117.642 10.7083H122.44L125.17 19.5124ZM150.828 14.6893H142.611L142.024 18.1344H148.812L148.098 22.1152H141.31L140.799 25.1009H149.016L148.302 29.0819H135.492L138.732 10.7083H151.543L150.828 14.6893ZM161.627 20.0993L163.286 10.7083H167.879L164.664 29.0819H160.045L156.829 19.0276L155.094 29.0819H150.475L153.716 10.7083H158.463L161.627 20.0993ZM91.4781 14.4852C89.7258 14.5193 88.6796 15.5145 88.3393 17.471L87.4717 22.3704C87.4036 22.7957 87.3695 23.2381 87.3695 23.6974C87.3695 24.8883 88.084 25.4837 89.5131 25.4837C90.3637 25.4837 91.0443 25.2627 91.5546 24.8203C92.065 24.378 92.4222 23.5613 92.6264 22.3704L93.494 17.471C93.5451 17.1307 93.5705 16.8243 93.5705 16.5521C93.5705 15.1742 92.8731 14.4852 91.4781 14.4852ZM103.703 25.1009H106.229C107.012 25.1009 107.633 24.9223 108.092 24.5651C108.552 24.1908 108.781 23.7399 108.781 23.2126C108.781 22.1238 108.101 21.5793 106.74 21.5793H104.315L103.703 25.1009ZM104.851 18.4915H106.74C108.373 18.4915 109.19 17.7771 109.19 16.3481C109.19 15.8547 109.037 15.4549 108.73 15.1486C108.441 14.8424 108.007 14.6893 107.429 14.6893H105.515L104.851 18.4915Z" fill="white"/>
<path d="M39.9859 10.5298C41.9934 10.5298 43.5077 10.9126 44.5284 11.6782C45.5661 12.4268 46.085 13.4731 46.085 14.817C46.085 15.3104 46.017 15.7867 45.8809 16.246C45.7618 16.6883 45.6342 17.0031 45.4981 17.1902L45.2939 17.4965H40.7771C41.1513 17.1052 41.3386 16.6117 41.3386 16.0163C41.3386 14.9105 40.6155 14.3577 39.1695 14.3577C37.3492 14.3577 36.439 14.936 36.439 16.0928C36.439 16.6712 36.7282 17.1307 37.3066 17.471C37.885 17.8112 38.5825 18.0833 39.399 18.2874C40.2327 18.4746 41.0663 18.7128 41.9 19.002C42.7335 19.2913 43.4395 19.7761 44.0179 20.4566C44.5963 21.1201 44.8855 21.9877 44.8855 23.0595C44.8855 25.2201 44.2391 26.8278 42.9462 27.8826C41.6532 28.9204 39.6628 29.4392 36.9748 29.4392C34.2868 29.4392 32.4494 28.9629 31.4627 28.0102C30.7311 27.2956 30.3654 26.3088 30.3654 25.0499C30.3654 24.5736 30.4164 24.0547 30.5185 23.4934L30.5952 23.085H35.1885L35.1375 23.3913C35.1035 23.5614 35.0865 23.7146 35.0865 23.8506C35.0865 25.0245 35.9285 25.6115 37.6127 25.6115C39.314 25.6115 40.1647 25.084 40.1647 24.0292C40.1647 23.4678 39.8754 23.0085 39.297 22.6512C38.7186 22.2939 38.0125 21.9962 37.1789 21.758C36.3623 21.5199 35.5373 21.2476 34.7037 20.9414C33.8871 20.6182 33.1895 20.1249 32.6111 19.4614C32.0326 18.7809 31.7434 17.9387 31.7434 16.935C31.7434 12.6649 34.491 10.5298 39.9859 10.5298ZM7.8645 17.1645H8.45155L12.7641 10.7083H17.3576L9.49777 22.0131L8.24731 29.0819H3.62846L4.87892 22.0131L1 10.7083H5.87411L7.8645 17.1645ZM30.5647 14.6893H22.3477L21.7609 18.1344H28.5488L27.8342 22.1152H21.0463L20.5359 25.1009H28.7529L28.0385 29.0819H15.228L18.4688 10.7083H31.2793L30.5647 14.6893Z" fill="#00DAB2"/>
<g clip-path="url(#clip1_2007_9825)">
<path d="M53.7512 17.5903H60.3376C59.1169 15.6626 60.3107 14.6988 61.0602 14.4578H68.4498L64.514 18.3935L68.4498 22.3293L75.9795 14.7996C77.987 12.792 77.987 9.53723 75.9795 7.52972L68.4498 0L64.1927 4.25702L68.4498 8.51404H60.3376C54.683 8.51404 53.5906 14.5649 53.7512 17.5903Z" fill="#00DAB2"/>
<path d="M75.102 22.4097H68.5157C69.7364 24.3374 68.5426 25.3012 67.793 25.5422H60.4035L64.3392 21.6065L60.4035 17.6707L52.8738 25.2004C50.8663 27.208 50.8663 30.4628 52.8738 32.4703L60.4035 40L64.6605 35.743L60.4035 31.486H68.5157C74.1703 31.486 75.2627 25.4351 75.102 22.4097Z" fill="white"/>
</g>
</g>
<defs>
<clipPath id="clip0_2007_9825">
<rect width="166.879" height="40" fill="white" transform="translate(1)"/>
</clipPath>
<clipPath id="clip1_2007_9825">
<rect width="30.3756" height="40" fill="white" transform="translate(49.2388)"/>
</clipPath>
</defs>
</svg>
